<?xml version="1.0" encoding="UTF-8" standalone="no"?>
<!-- Created with Inkscape (http://www.inkscape.org/) -->

<svg
   width="109.94097mm"
   height="29.08186mm"
   viewBox="0 0 109.94097 29.08186"
   version="1.1"
   id="svg1"
   inkscape:version="1.4.3 (0d15f75042, 2025-12-25)"
   xmlns:inkscape="http://www.inkscape.org/namespaces/inkscape"
   xmlns:sodipodi="http://sodipodi.sourceforge.net/DTD/sodipodi-0.dtd"
   xmlns="http://www.w3.org/2000/svg"
   xmlns:svg="http://www.w3.org/2000/svg">
  <sodipodi:namedview
     id="namedview1"
     pagecolor="#ffffff"
     bordercolor="#000000"
     borderopacity="0.25"
     inkscape:showpageshadow="2"
     inkscape:pageopacity="0.0"
     inkscape:pagecheckerboard="0"
     inkscape:deskcolor="#d1d1d1"
     inkscape:document-units="mm"
     inkscape:zoom="1.2448016"
     inkscape:cx="256.26574"
     inkscape:cy="68.685645"
     inkscape:window-width="2514"
     inkscape:window-height="974"
     inkscape:window-x="0"
     inkscape:window-y="0"
     inkscape:window-maximized="1"
     inkscape:current-layer="text1" />
  <defs
     id="defs1" />
  <g
     inkscape:label="Layer 1"
     inkscape:groupmode="layer"
     id="layer1"
     transform="translate(-59.491959,-121.11477)">
    <g
       id="text1"
       style="font-size:3.175px;stroke-width:0.264583"
       aria-label="&#10;┌───────────────────────────────────────────────────────┐&#10;│                __       __             _____ __ __    │&#10;│     ____ ___  / /______/ /__ _   __   |__  // // /    │&#10;│    / __ `__ \/ //_/ __  / _ \ | / /    /_ &lt;/ // /_    │&#10;│   / / / / / / ,&lt; / /_/ /  __/ |/ /   ___/ /__  __/    │&#10;│  /_/ /_/ /_/_/|_|\__,_/\___/|___/   /____(_)/_/       │&#10;│                                                       │&#10;└───────────────────────────────────────────────────────┘"
       transform="translate(-4.3585833,-1.8035517)">
      <path
         id="path17"
         style="font-family:'FiraCode Nerd Font Mono';-inkscape-font-specification:'FiraCode Nerd Font Mono';fill:#ffa500;fill-opacity:1;stroke:#ffa500;stroke-width:0.265;stroke-dasharray:none;stroke-opacity:1"
         d="m 64.243555,149.62076 v 1.98641 h 0.862948 v 0.26051 h -1.123461 v -2.24692 z m 2.816796,1.98641 v 0.26051 h -1.98641 v -0.26051 z m 1.953847,0 v 0.26051 h -1.98641 v -0.26051 z m 1.953848,0 v 0.26051 h -1.98641 v -0.26051 z m 1.953847,0 v 0.26051 h -1.98641 v -0.26051 z m 1.953848,0 v 0.26051 h -1.98641 v -0.26051 z m 1.953848,0 v 0.26051 h -1.986411 v -0.26051 z m 1.953847,0 v 0.26051 h -1.986411 v -0.26051 z m 1.953847,0 v 0.26051 h -1.98641 v -0.26051 z m 1.953847,0 v 0.26051 h -1.98641 v -0.26051 z m 1.953848,0 v 0.26051 h -1.98641 v -0.26051 z m 1.953848,0 v 0.26051 h -1.98641 v -0.26051 z m 1.953848,0 v 0.26051 h -1.98641 v -0.26051 z m 1.953848,0 v 0.26051 h -1.98641 v -0.26051 z m 1.953846,0 v 0.26051 h -1.98641 v -0.26051 z m 1.953848,0 v 0.26051 h -1.98641 v -0.26051 z m 1.953848,0 v 0.26051 h -1.986411 v -0.26051 z m 1.953848,0 v 0.26051 h -1.986411 v -0.26051 z m 1.953848,0 v 0.26051 h -1.986413 v -0.26051 z m 1.95385,0 v 0.26051 h -1.98641 v -0.26051 z m 1.95384,0 v 0.26051 h -1.98641 v -0.26051 z m 1.95385,0 v 0.26051 h -1.98641 v -0.26051 z m 1.95385,0 v 0.26051 h -1.98641 v -0.26051 z m 1.95384,0 v 0.26051 h -1.98641 v -0.26051 z m 1.95385,0 v 0.26051 h -1.98641 v -0.26051 z m 1.95384,0 v 0.26051 h -1.9864 v -0.26051 z m 1.95385,0 v 0.26051 h -1.98641 v -0.26051 z m 1.95385,0 v 0.26051 h -1.98641 v -0.26051 z m 1.95384,0 v 0.26051 h -1.98641 v -0.26051 z m 1.95385,0 v 0.26051 h -1.98641 v -0.26051 z m 1.95385,0 v 0.26051 h -1.98641 v -0.26051 z m 1.95385,0 v 0.26051 h -1.98641 v -0.26051 z m 1.95385,0 v 0.26051 h -1.98641 v -0.26051 z m 1.95384,0 v 0.26051 h -1.98641 v -0.26051 z m 1.95385,0 v 0.26051 h -1.98641 v -0.26051 z m 1.95385,0 v 0.26051 h -1.98641 v -0.26051 z m 1.95384,0 v 0.26051 h -1.98641 v -0.26051 z m 1.95385,0 v 0.26051 h -1.98641 v -0.26051 z m 1.95385,0 v 0.26051 h -1.98641 v -0.26051 z m 1.95385,0 v 0.26051 h -1.98641 v -0.26051 z m 1.95385,0 v 0.26051 h -1.98641 v -0.26051 z m 1.95385,0 v 0.26051 h -1.98642 v -0.26051 z m 1.95384,0 v 0.26051 h -1.98641 v -0.26051 z m 1.95385,0 v 0.26051 h -1.98641 v -0.26051 z m 1.95385,0 v 0.26051 h -1.98641 v -0.26051 z m 1.95385,0 v 0.26051 h -1.98641 v -0.26051 z m 1.95384,0 v 0.26051 h -1.98641 v -0.26051 z m 1.95385,0 v 0.26051 h -1.98641 v -0.26051 z m 1.95385,0 v 0.26051 h -1.98641 v -0.26051 z m 1.95384,0 v 0.26051 h -1.98641 v -0.26051 z m 1.95385,0 v 0.26051 h -1.98641 v -0.26051 z m 1.95385,0 v 0.26051 h -1.98641 v -0.26051 z m 1.95385,0 v 0.26051 h -1.98641 v -0.26051 z m 1.95384,0 v 0.26051 H 166.674 v -0.26051 z m 1.95385,0 v 0.26051 h -1.98641 v -0.26051 z m 1.95385,0 v 0.26051 h -1.98641 v -0.26051 z m 1.0909,-1.98641 v 2.24692 h -1.12347 v -0.26051 h 0.86295 v -1.98641 z M 64.243555,145.54128 v 4.88461 h -0.260513 v -4.88461 z m 109.415455,0 v 4.88461 h -0.26052 v -4.88461 z M 64.243555,141.4618 v 4.88462 h -0.260513 v -4.88462 z m 5.14676,3.59182 -0.221436,-0.0977 1.393744,-2.87378 0.218179,0.10746 z m 1.724271,0.25563 v -0.23935 h 1.628205 v 0.23935 z m 2.183424,-0.25563 -0.221436,-0.0977 1.393744,-2.87378 0.218179,0.10746 z m 3.907695,0 -0.221436,-0.0977 1.393744,-2.87378 0.218179,0.10746 z m 1.724271,0.25563 v -0.23935 h 1.628205 v 0.23935 z m 2.183424,-0.25563 -0.221436,-0.0977 1.393743,-2.87378 0.21818,0.10746 z m 3.907695,0 -0.221435,-0.0977 1.393743,-2.87378 0.21818,0.10746 z m 1.724271,0.25563 v -0.23935 h 1.628205 v 0.23935 z m 2.183425,-0.25563 -0.221436,-0.0977 1.393744,-2.87378 0.218179,0.10746 z m 1.724269,0.25563 v -0.23935 h 1.628205 v 0.23935 z m 2.183425,-0.25563 -0.221436,-0.0977 1.393744,-2.87378 0.218179,0.10746 z m 2.658861,-2.96333 v 2.96007 h -0.244231 v -2.96007 z m 1.019258,3.21896 v -0.23935 h 1.628205 v 0.23935 z m 2.888436,-3.21896 v 2.96007 h -0.244231 v -2.96007 z m 1.0274,0.0993 0.21818,-0.10746 1.39374,2.87378 -0.22143,0.0977 z m 1.94571,3.11964 v -0.23935 h 1.82358 v 0.23937 z m 1.75846,0 v -0.23935 h 1.82359 v 0.23937 z m 2.96333,-1.12672 q 0.11235,0 0.18725,0.0765 0.0765,0.0765 0.0765,0.18398 0,0.0586 -0.0147,0.11886 -0.013,0.0602 -0.0489,0.13677 l -0.26377,0.60407 h -0.24749 l 0.15631,-0.64315 q -0.10583,-0.0765 -0.10583,-0.21655 0,-0.10746 0.0749,-0.18398 0.0749,-0.0765 0.18561,-0.0765 z m 1.13975,1.12672 v -0.23935 h 1.6282 v 0.23937 z m 2.18342,-0.25563 -0.22144,-0.0977 1.39375,-2.87378 0.21818,0.10746 z m 1.73241,-2.86401 0.21818,-0.10746 1.39374,2.87378 -0.22143,0.0977 z m 1.9457,3.11964 v -0.23935 h 1.82359 v 0.23937 z m 1.75847,0 v -0.23935 h 2.01897 v 0.23937 z m 1.95384,0 v -0.23935 h 1.82359 v 0.23937 z m 2.37881,-0.25563 -0.22143,-0.0977 1.39374,-2.87378 0.21818,0.10746 z m 2.65886,-2.96333 v 2.96007 h -0.24423 v -2.96007 z m 1.01926,3.21896 v -0.23935 h 1.82359 v 0.23937 z m 1.75846,0 v -0.23935 h 2.01898 v 0.23937 z m 1.95385,0 v -0.23935 h 1.82359 v 0.23937 z m 2.37881,-0.25563 -0.22143,-0.0977 1.39374,-2.87378 0.21818,0.10746 z m 7.81539,0 -0.22143,-0.0977 1.39374,-2.87378 0.21818,0.10746 z m 1.72427,0.25563 v -0.23935 h 1.82359 v 0.23937 z m 1.75846,0 v -0.23935 h 2.01898 v 0.23937 z m 1.95385,0 v -0.23935 h 2.01898 v 0.23937 z m 1.95385,0 v -0.23935 h 1.82359 v 0.23937 z m 2.6784,-1.73078 q 0,0.34029 0.0765,0.58778 0.0782,0.24586 0.23284,0.44938 0.15467,0.20353 0.38751,0.40868 l -0.14328,0.1498 q -0.26377,-0.21493 -0.45265,-0.44125 -0.18724,-0.22632 -0.28819,-0.50474 -0.0993,-0.27842 -0.0993,-0.64965 0,-0.37123 0.0993,-0.64966 0.10095,-0.27842 0.28819,-0.50474 0.18888,-0.22632 0.45265,-0.44124 l 0.14328,0.14979 q -0.17585,0.15631 -0.30773,0.30773 -0.13026,0.1498 -0.21655,0.31587 -0.0863,0.16608 -0.13026,0.36635 -0.0423,0.20027 -0.0423,0.4559 z m 1.42468,1.73078 v -0.23935 h 1.6282 v 0.23937 z m 3.05289,-1.73078 q 0,-0.25563 -0.044,-0.4559 -0.0423,-0.20027 -0.12863,-0.36635 -0.0863,-0.16607 -0.21818,-0.31587 -0.13026,-0.15142 -0.3061,-0.30773 l 0.14328,-0.14979 q 0.26377,0.21492 0.45101,0.44124 0.18887,0.22632 0.28819,0.50474 0.10095,0.27843 0.10095,0.64966 0,0.37123 -0.10095,0.64965 -0.0993,0.27842 -0.28819,0.50474 -0.18724,0.22632 -0.45101,0.44125 l -0.14328,-0.1498 q 0.23283,-0.20515 0.38751,-0.40868 0.15468,-0.20352 0.2312,-0.44938 0.0782,-0.24749 0.0782,-0.58778 z m 1.08438,1.47515 -0.22144,-0.0977 1.39375,-2.87378 0.21818,0.10746 z m 1.72427,0.25563 v -0.23935 h 1.62821 v 0.23937 z m 2.18343,-0.25563 -0.22144,-0.0977 1.39375,-2.87378 0.21817,0.10746 z m 16.34556,-3.59182 v 4.88462 h -0.26052 v -4.88462 z M 64.243555,137.38232 v 4.88462 h -0.260513 v -4.88462 z m 7.100608,3.59182 -0.221436,-0.0977 1.393743,-2.87378 0.21818,0.10746 z m 3.907695,0 -0.221436,-0.0977 1.393744,-2.87378 0.218179,0.10746 z m 3.907695,0 -0.221436,-0.0977 1.393743,-2.87378 0.21818,0.10746 z m 3.907695,0 -0.221436,-0.0977 1.393743,-2.87378 0.21818,0.10746 z m 3.907695,0 -0.221436,-0.0977 1.393744,-2.87378 0.218179,0.10746 z m 3.907694,0 -0.221436,-0.0977 1.393744,-2.87378 0.218179,0.10746 z m 4.492222,-0.87109 q 0.112346,0 0.187243,0.0765 0.07653,0.0765 0.07653,0.18398 0,0.0586 -0.01465,0.11886 -0.01303,0.0602 -0.04885,0.13677 l -0.263769,0.60407 h -0.247488 l 0.156308,-0.64314 q -0.105833,-0.0765 -0.105833,-0.21656 0,-0.10746 0.0749,-0.18398 0.0749,-0.0765 0.185616,-0.0765 z m 2.515578,-1.39863 0.131885,0.21004 -1.149513,0.70501 1.149513,0.71153 -0.146539,0.20027 -1.237436,-0.7734 v -0.28005 z m 2.761443,2.26972 -0.22144,-0.0977 1.39374,-2.87378 0.21818,0.10746 z m 3.90769,0 -0.22143,-0.0977 1.39374,-2.87378 0.21818,0.10746 z m 1.72427,0.25563 v -0.23935 h 1.62821 v 0.23935 z m 2.18342,-0.25563 -0.22143,-0.0977 1.39374,-2.87378 0.21818,0.10746 z m 3.9077,0 -0.22144,-0.0977 1.39374,-2.87378 0.21818,0.10746 z m 5.63196,0.25563 v -0.23935 h 1.82359 v 0.23935 z m 1.75846,0 v -0.23935 h 1.82359 v 0.23935 z m 2.37881,-0.25563 -0.22144,-0.0977 1.39375,-2.87378 0.21818,0.10746 z m 4.61271,-2.96333 v 2.96008 h -0.24423 v -2.96008 z m 1.24883,2.96333 -0.22143,-0.0977 1.39374,-2.87378 0.21818,0.10746 z m 3.9077,0 -0.22143,-0.0977 1.39374,-2.87378 0.21818,0.10746 z m 7.58581,0.25563 v -0.23935 h 1.82359 v 0.23935 z m 1.75846,0 v -0.23935 h 2.01898 v 0.23935 z m 1.95385,0 v -0.23935 h 1.82359 v 0.23935 z m 2.37881,-0.25563 -0.22143,-0.0977 1.39374,-2.87378 0.21818,0.10746 z m 3.9077,0 -0.22144,-0.0977 1.39374,-2.87378 0.21818,0.10746 z m 1.72427,0.25563 v -0.23935 h 1.82359 v 0.23935 z m 1.75846,0 v -0.23935 h 1.82359 v 0.23935 z m 6.05692,0 v -0.23935 h 1.82359 v 0.23935 z m 1.75847,0 v -0.23935 h 1.82359 v 0.23935 z m 2.37881,-0.25563 -0.22144,-0.0977 1.39375,-2.87378 0.21818,0.10746 z m 10.48402,-3.59182 v 4.88462 h -0.26052 v -4.88462 z M 64.243555,133.30284 v 4.88462 h -0.260513 v -4.88462 z m 9.054455,3.59182 -0.221436,-0.0977 1.393744,-2.87378 0.218179,0.10746 z m 3.678118,0.25563 v -0.23935 h 1.82359 v 0.23935 z m 1.758463,0 v -0.23935 h 1.82359 v 0.23935 z m 5.198862,-2.61652 -0.657795,-0.30285 0.146538,-0.23283 0.600808,0.38425 z m 0.858065,2.61652 v -0.23935 h 1.82359 v 0.23935 z m 1.758464,0 v -0.23935 h 1.823589 v 0.23935 z m 6.074836,-0.59104 1.087641,-2.24204 h -0.296333 l -0.972038,1.99293 -0.973667,-1.99293 h -0.294705 l 1.087641,2.24204 z m 4.282183,0.33541 -0.221436,-0.0977 1.393744,-2.87378 0.218179,0.10746 z m 1.628205,0 -0.221436,-0.0977 1.393744,-2.87378 0.218179,0.10746 z m 1.887094,0.25563 v -0.23935 h 1.6282 v 0.23935 z m 2.18342,-0.25563 -0.22143,-0.0977 1.39374,-2.87378 0.21818,0.10746 z m 3.67812,0.25563 v -0.23935 h 1.82359 v 0.23935 z m 1.75846,0 v -0.23935 h 1.82359 v 0.23935 z m 6.2865,-0.25563 -0.22143,-0.0977 1.39374,-2.87378 0.21818,0.10746 z m 3.67812,0.25563 v -0.23935 h 1.6282 v 0.23935 z m 3.91583,-3.11964 0.21818,-0.10746 1.39375,2.87378 -0.22144,0.0977 z m 4.83415,-0.0993 v 2.96008 h -0.24423 v -2.96008 z m 3.20268,2.96333 -0.22143,-0.0977 1.39374,-2.87378 0.21818,0.10746 z m 3.90769,0 -0.22143,-0.0977 1.39374,-2.87378 0.21818,0.10746 z m 9.76924,0 -0.22143,-0.0977 1.39374,-2.87378 0.21818,0.10746 z m 1.72428,0.25563 v -0.23935 h 1.6282 v 0.23935 z m 5.69383,-0.10746 -0.22143,-0.0993 0.1384,-0.28168 -1.57936,-0.98344 v -0.28005 l 1.25209,-0.7734 0.13188,0.21004 -1.14951,0.70502 1.45236,0.89714 1.21952,-2.51395 0.21818,0.10746 z m 4.4678,-0.14817 -0.22143,-0.0977 1.39374,-2.87378 0.21818,0.10746 z m 1.62821,0 -0.22144,-0.0977 1.39374,-2.87378 0.21818,0.10746 z m 4.07051,0 -0.22144,-0.0977 1.39375,-2.87378 0.21818,0.10746 z m 1.72427,0.25563 v -0.23935 h 1.62821 v 0.23935 z m 10.7136,-3.84745 v 4.88462 h -0.26052 v -4.88462 z m -109.415455,-4.0795 v 4.88462 h -0.260513 v -4.88462 z m 10.778726,3.84745 v -0.23934 h 1.82359 v 0.23934 z m 1.758462,0 v -0.23934 h 2.018975 v 0.23934 z m 1.953848,0 v -0.23934 h 2.018975 v 0.23934 z m 1.953847,0 v -0.23934 h 1.82359 v 0.23934 z m 4.10308,0 v -0.23934 h 1.82359 v 0.23934 z m 1.758464,0 v -0.23934 h 2.018974 v 0.23934 z m 1.953848,0 v -0.23934 h 1.823589 v 0.23934 z m 6.286503,-0.25563 -0.221436,-0.0977 1.393744,-2.87378 0.218179,0.10746 z m 3.907694,0 -0.221436,-0.0977 1.393743,-2.87378 0.218176,0.10746 z m 1.724273,0.25563 v -0.23934 h 1.82359 v 0.23934 z m 1.75846,0 v -0.23934 h 2.01897 v 0.23934 z m 1.95385,0 v -0.23934 h 2.01897 v 0.23934 z m 1.95385,0 v -0.23934 h 2.01897 v 0.23934 z m 1.95384,0 v -0.23934 h 2.01897 v 0.23934 z m 1.95385,0 v -0.23934 h 1.82359 v 0.23934 z m 2.37881,-0.25563 -0.22144,-0.0977 1.39374,-2.87378 0.21818,0.10746 z m 3.90769,0 -0.22144,-0.0977 1.39375,-2.87378 0.21818,0.10746 z m 1.72427,0.25563 v -0.23934 h 1.82359 v 0.23934 z m 1.75846,0 v -0.23934 h 1.82359 v 0.23934 z m 4.10308,0 v -0.23934 h 1.62821 v 0.23934 z m 7.81539,0 v -0.23934 h 1.82359 v 0.23934 z m 1.75846,0 v -0.23934 h 1.82359 v 0.23934 z m 8.94537,-3.21896 v 2.96008 h -0.24423 v -2.96008 z m 1.01926,3.21896 v -0.23934 h 1.82359 v 0.23934 z m 1.75846,0 v -0.23934 h 1.82359 v 0.23934 z m 6.44932,-0.25563 -0.22143,-0.0977 1.39374,-2.87378 0.21818,0.10746 z m 1.62821,0 -0.22144,-0.0977 1.39375,-2.87378 0.21817,0.10746 z m 4.23333,0 -0.22143,-0.0977 1.39374,-2.87378 0.21818,0.10746 z m 1.62821,0 -0.22144,-0.0977 1.39375,-2.87378 0.21818,0.10746 z m 4.07052,0 -0.22144,-0.0977 1.39375,-2.87378 0.21818,0.10746 z m 10.48402,-3.59182 v 4.88462 h -0.26052 v -4.88462 z M 64.243555,125.14389 v 4.88461 h -0.260513 v -4.88461 z m 32.271049,3.84744 v -0.23934 h 1.82359 v 0.23934 z m 1.758461,0 v -0.23934 h 1.823585 v 0.23934 z m 15.826155,0 v -0.23934 h 1.82359 v 0.23934 z m 1.75847,0 v -0.23934 h 1.82359 v 0.23934 z m 27.54925,0 v -0.23934 h 1.82359 v 0.23934 z m 1.75846,0 v -0.23934 h 2.01898 v 0.23934 z m 1.95384,0 v -0.23934 h 2.01898 v 0.23934 z m 1.95385,0 v -0.23934 h 2.01898 v 0.23934 z m 1.95385,0 v -0.23934 h 1.82359 v 0.23934 z m 4.10308,0 v -0.23934 h 1.82359 v 0.23934 z m 1.75847,0 v -0.23934 h 1.82359 v 0.23934 z m 4.10307,0 v -0.23934 h 1.82359 v 0.23934 z m 1.75847,0 v -0.23934 h 1.82359 v 0.23934 z m 10.90898,-3.84744 v 4.88461 h -0.26052 v -4.88461 z M 67.060351,123.05082 v 0.26051 h -1.98641 v -0.26051 z m 1.953847,0 v 0.26051 h -1.98641 v -0.26051 z m 1.953848,0 v 0.26051 h -1.98641 v -0.26051 z m 1.953847,0 v 0.26051 h -1.98641 v -0.26051 z m 1.953848,0 v 0.26051 h -1.98641 v -0.26051 z m 1.953848,0 v 0.26051 h -1.986411 v -0.26051 z m 1.953847,0 v 0.26051 h -1.986411 v -0.26051 z m 1.953847,0 v 0.26051 h -1.98641 v -0.26051 z m 1.953847,0 v 0.26051 h -1.98641 v -0.26051 z m 1.953848,0 v 0.26051 h -1.98641 v -0.26051 z m 1.953848,0 v 0.26051 h -1.98641 v -0.26051 z m 1.953848,0 v 0.26051 h -1.98641 v -0.26051 z m 1.953848,0 v 0.26051 h -1.98641 v -0.26051 z m 1.953846,0 v 0.26051 h -1.98641 v -0.26051 z m 1.953848,0 v 0.26051 h -1.98641 v -0.26051 z m 1.953848,0 v 0.26051 h -1.986411 v -0.26051 z m 1.953848,0 v 0.26051 h -1.986411 v -0.26051 z m 1.953848,0 v 0.26051 h -1.986413 v -0.26051 z m 1.95385,0 v 0.26051 h -1.98641 v -0.26051 z m 1.95384,0 v 0.26051 h -1.98641 v -0.26051 z m 1.95385,0 v 0.26051 h -1.98641 v -0.26051 z m 1.95385,0 v 0.26051 h -1.98641 v -0.26051 z m 1.95384,0 v 0.26051 h -1.98641 v -0.26051 z m 1.95385,0 v 0.26051 h -1.98641 v -0.26051 z m 1.95384,0 v 0.26051 h -1.9864 v -0.26051 z m 1.95385,0 v 0.26051 h -1.98641 v -0.26051 z m 1.95385,0 v 0.26051 h -1.98641 v -0.26051 z m 1.95384,0 v 0.26051 h -1.98641 v -0.26051 z m 1.95385,0 v 0.26051 h -1.98641 v -0.26051 z m 1.95385,0 v 0.26051 h -1.98641 v -0.26051 z m 1.95385,0 v 0.26051 h -1.98641 v -0.26051 z m 1.95385,0 v 0.26051 h -1.98641 v -0.26051 z m 1.95384,0 v 0.26051 h -1.98641 v -0.26051 z m 1.95385,0 v 0.26051 h -1.98641 v -0.26051 z m 1.95385,0 v 0.26051 h -1.98641 v -0.26051 z m 1.95384,0 v 0.26051 h -1.98641 v -0.26051 z m 1.95385,0 v 0.26051 h -1.98641 v -0.26051 z m 1.95385,0 v 0.26051 h -1.98641 v -0.26051 z m 1.95385,0 v 0.26051 h -1.98641 v -0.26051 z m 1.95385,0 v 0.26051 h -1.98641 v -0.26051 z m 1.95385,0 v 0.26051 h -1.98642 v -0.26051 z m 1.95384,0 v 0.26051 h -1.98641 v -0.26051 z m 1.95385,0 v 0.26051 h -1.98641 v -0.26051 z m 1.95385,0 v 0.26051 h -1.98641 v -0.26051 z m 1.95385,0 v 0.26051 h -1.98641 v -0.26051 z m 1.95384,0 v 0.26051 h -1.98641 v -0.26051 z m 1.95385,0 v 0.26051 h -1.98641 v -0.26051 z m 1.95385,0 v 0.26051 h -1.98641 v -0.26051 z m 1.95384,0 v 0.26051 h -1.98641 v -0.26051 z m 1.95385,0 v 0.26051 h -1.98641 v -0.26051 z m 1.95385,0 v 0.26051 h -1.98641 v -0.26051 z m 1.95385,0 v 0.26051 h -1.98641 v -0.26051 z m 1.95384,0 v 0.26051 H 166.674 v -0.26051 z m 1.95385,0 v 0.26051 h -1.98641 v -0.26051 z m 1.95385,0 v 0.26051 h -1.98641 v -0.26051 z m 1.0909,0 v 2.8982 h -0.26052 v -2.63769 h -0.86295 v -0.26051 z m -108.552507,0 v 0.26051 h -0.862948 v 2.63769 h -0.260513 v -2.8982 z" />
    </g>
  </g>
</svg>
